<?xml version="1.0" encoding="UTF-8"?>
<svg width="1000px" height="1000px" viewBox="0 0 1000 1000" version="1.1" xmlns="http://www.w3.org/2000/svg" xmlns:xlink="http://www.w3.org/1999/xlink">
    <title>Artboard</title>
    <g id="Artboard" stroke="none" stroke-width="1" fill="none" fill-rule="evenodd">
        <path d="M469.313192,198 L601.523371,198 C605.389364,198 608.523371,201.134007 608.523371,205 C608.523371,205.734977 608.40762,206.465368 608.180372,207.164331 L416.033831,798.164331 C415.096331,801.047872 412.408944,803 409.37683,803 L272.327148,803 C268.461155,803 265.327148,799.865993 265.327148,796 C265.327148,795.247675 265.448427,794.50027 265.686318,793.786547 L462.672362,202.786547 C463.625117,199.92808 466.300124,198 469.313192,198 Z" id="Rectangle" fill="#323232" transform="translate(436.8876, 500.5) scale(-1, 1) rotate(-180) translate(-436.8876, -500.5)"></path>
        <path d="M736.133705,198 L868.343884,198 C872.209877,198 875.343884,201.134007 875.343884,205 C875.343884,205.734977 875.228133,206.465368 875.000885,207.164331 L682.854344,798.164331 C681.916844,801.047872 679.229457,803 676.197343,803 L539.147661,803 C535.281668,803 532.147661,799.865993 532.147661,796 C532.147661,795.247675 532.26894,794.50027 532.506831,793.786547 L729.492875,202.786547 C730.445629,199.92808 733.120637,198 736.133705,198 Z" id="Rectangle" fill="#323232" transform="translate(703.7081, 500.5) scale(-1, 1) rotate(-180) translate(-703.7081, -500.5)"></path>
        <path d="M164.942449,391.561521 L290.107904,391.561521 C293.973897,391.561521 297.107904,394.695528 297.107904,398.561521 C297.107904,399.082131 297.049826,399.601116 296.934747,400.108848 L207.16551,796.172972 C206.921349,797.250218 205.850136,797.925567 204.77289,797.681405 C204.098971,797.528659 203.551641,797.038851 203.325308,796.385956 L124.813517,569.906188 C123.626823,566.482981 123.392299,562.801713 124.134995,559.25559 L158.091102,397.126583 C158.770227,393.883991 161.629502,391.561521 164.942449,391.561521 Z" id="Rectangle" fill="#323232" transform="translate(210.936, 597.2808) rotate(180) translate(-210.936, -597.2808)"></path>
    </g>
</svg>